<svg id="visual" viewBox="0 0 900 600" width="900" height="600" xmlns="http://www.w3.org/2000/svg" xmlns:xlink="http://www.w3.org/1999/xlink" version="1.1"><path d="M0 311L21.5 321.3C43 331.7 86 352.3 128.8 359.3C171.7 366.3 214.3 359.7 257.2 365C300 370.3 343 387.7 385.8 383.8C428.7 380 471.3 355 514.2 342.8C557 330.7 600 331.3 642.8 340.3C685.7 349.3 728.3 366.7 771.2 363.7C814 360.7 857 337.3 878.5 325.7L900 314L900 601L878.5 601C857 601 814 601 771.2 601C728.3 601 685.7 601 642.8 601C600 601 557 601 514.2 601C471.3 601 428.7 601 385.8 601C343 601 300 601 257.2 601C214.3 601 171.7 601 128.8 601C86 601 43 601 21.5 601L0 601Z" fill="#f32f0c"></path><path d="M0 363L21.5 362.3C43 361.7 86 360.3 128.8 364C171.7 367.7 214.3 376.3 257.2 387.8C300 399.3 343 413.7 385.8 421.2C428.7 428.7 471.3 429.3 514.2 421.5C557 413.7 600 397.3 642.8 389.3C685.7 381.3 728.3 381.7 771.2 389.5C814 397.3 857 412.7 878.5 420.3L900 428L900 601L878.5 601C857 601 814 601 771.2 601C728.3 601 685.7 601 642.8 601C600 601 557 601 514.2 601C471.3 601 428.7 601 385.8 601C343 601 300 601 257.2 601C214.3 601 171.7 601 128.8 601C86 601 43 601 21.5 601L0 601Z" fill="#d92618"></path><path d="M0 455L21.5 459.3C43 463.7 86 472.3 128.8 468.5C171.7 464.7 214.3 448.3 257.2 443.2C300 438 343 444 385.8 447C428.7 450 471.3 450 514.2 446.8C557 443.7 600 437.3 642.8 439.5C685.7 441.7 728.3 452.3 771.2 458.5C814 464.7 857 466.3 878.5 467.2L900 468L900 601L878.5 601C857 601 814 601 771.2 601C728.3 601 685.7 601 642.8 601C600 601 557 601 514.2 601C471.3 601 428.7 601 385.8 601C343 601 300 601 257.2 601C214.3 601 171.7 601 128.8 601C86 601 43 601 21.5 601L0 601Z" fill="#bf201e"></path><path d="M0 520L21.5 517.3C43 514.7 86 509.3 128.8 501.5C171.7 493.7 214.3 483.3 257.2 481.2C300 479 343 485 385.8 485.3C428.7 485.7 471.3 480.3 514.2 477.5C557 474.7 600 474.3 642.8 479.3C685.7 484.3 728.3 494.7 771.2 504.2C814 513.7 857 522.3 878.5 526.7L900 531L900 601L878.5 601C857 601 814 601 771.2 601C728.3 601 685.7 601 642.8 601C600 601 557 601 514.2 601C471.3 601 428.7 601 385.8 601C343 601 300 601 257.2 601C214.3 601 171.7 601 128.8 601C86 601 43 601 21.5 601L0 601Z" fill="#a41c20"></path><path d="M0 544L21.5 540.7C43 537.3 86 530.7 128.8 533C171.7 535.3 214.3 546.7 257.2 546.7C300 546.7 343 535.3 385.8 528C428.7 520.7 471.3 517.3 514.2 519.7C557 522 600 530 642.8 529.8C685.7 529.7 728.3 521.3 771.2 519.5C814 517.7 857 522.3 878.5 524.7L900 527L900 601L878.5 601C857 601 814 601 771.2 601C728.3 601 685.7 601 642.8 601C600 601 557 601 514.2 601C471.3 601 428.7 601 385.8 601C343 601 300 601 257.2 601C214.3 601 171.7 601 128.8 601C86 601 43 601 21.5 601L0 601Z" fill="#8a1920"></path></svg>