<svg id="visual" viewBox="0 0 1350 600" width="1350" height="600" xmlns="http://www.w3.org/2000/svg" xmlns:xlink="http://www.w3.org/1999/xlink" version="1.1"><rect x="0" y="0" width="1350" height="600" fill="#fcf5f0"></rect><path d="M0 389L32.2 385C64.3 381 128.7 373 193 370.8C257.3 368.7 321.7 372.3 386 381.8C450.3 391.3 514.7 406.7 578.8 417.8C643 429 707 436 771.2 425.7C835.3 415.3 899.7 387.7 964 377.8C1028.3 368 1092.7 376 1157 386.8C1221.3 397.7 1285.7 411.3 1317.8 418.2L1350 425L1350 601L1317.8 601C1285.7 601 1221.3 601 1157 601C1092.7 601 1028.3 601 964 601C899.7 601 835.3 601 771.2 601C707 601 643 601 578.8 601C514.7 601 450.3 601 386 601C321.7 601 257.3 601 193 601C128.7 601 64.3 601 32.2 601L0 601Z" fill="#fa0e32"></path><path d="M0 399L32.2 407C64.3 415 128.7 431 193 440.2C257.3 449.3 321.7 451.7 386 445.8C450.3 440 514.7 426 578.8 428C643 430 707 448 771.2 459.2C835.3 470.3 899.7 474.7 964 467.5C1028.3 460.3 1092.7 441.7 1157 428.7C1221.3 415.7 1285.7 408.3 1317.8 404.7L1350 401L1350 601L1317.8 601C1285.7 601 1221.3 601 1157 601C1092.7 601 1028.3 601 964 601C899.7 601 835.3 601 771.2 601C707 601 643 601 578.8 601C514.7 601 450.3 601 386 601C321.7 601 257.3 601 193 601C128.7 601 64.3 601 32.2 601L0 601Z" fill="#b81d28"></path><path d="M0 449L32.2 452.7C64.3 456.3 128.7 463.7 193 473.3C257.3 483 321.7 495 386 501.7C450.3 508.3 514.7 509.7 578.8 507.8C643 506 707 501 771.2 501C835.3 501 899.7 506 964 499.7C1028.3 493.3 1092.7 475.7 1157 466.7C1221.3 457.7 1285.7 457.3 1317.8 457.2L1350 457L1350 601L1317.8 601C1285.7 601 1221.3 601 1157 601C1092.7 601 1028.3 601 964 601C899.7 601 835.3 601 771.2 601C707 601 643 601 578.8 601C514.7 601 450.3 601 386 601C321.7 601 257.3 601 193 601C128.7 601 64.3 601 32.2 601L0 601Z" fill="#791d1e"></path><path d="M0 491L32.2 490.3C64.3 489.7 128.7 488.3 193 489.7C257.3 491 321.7 495 386 502.7C450.3 510.3 514.7 521.7 578.8 527.7C643 533.7 707 534.3 771.2 532.5C835.3 530.7 899.7 526.3 964 518C1028.3 509.7 1092.7 497.3 1157 496.7C1221.3 496 1285.7 507 1317.8 512.5L1350 518L1350 601L1317.8 601C1285.7 601 1221.3 601 1157 601C1092.7 601 1028.3 601 964 601C899.7 601 835.3 601 771.2 601C707 601 643 601 578.8 601C514.7 601 450.3 601 386 601C321.7 601 257.3 601 193 601C128.7 601 64.3 601 32.2 601L0 601Z" fill="#3f1614"></path><path d="M0 544L32.2 544.8C64.3 545.7 128.7 547.3 193 544.2C257.3 541 321.7 533 386 529.5C450.3 526 514.7 527 578.8 532.5C643 538 707 548 771.2 554.3C835.3 560.7 899.7 563.3 964 559.8C1028.3 556.3 1092.7 546.7 1157 547.3C1221.3 548 1285.7 559 1317.8 564.5L1350 570L1350 601L1317.8 601C1285.7 601 1221.3 601 1157 601C1092.7 601 1028.3 601 964 601C899.7 601 835.3 601 771.2 601C707 601 643 601 578.8 601C514.7 601 450.3 601 386 601C321.7 601 257.3 601 193 601C128.7 601 64.3 601 32.2 601L0 601Z" fill="#030303"></path></svg>