<svg id="visual" viewBox="0 0 900 600" width="900" height="600" xmlns="http://www.w3.org/2000/svg" xmlns:xlink="http://www.w3.org/1999/xlink" version="1.1"><rect x="0" y="0" width="900" height="600" fill="#002233"></rect><path d="M0 202L25 234.2C50 266.3 100 330.7 150 345.7C200 360.7 250 326.3 300 304.7C350 283 400 274 450 290C500 306 550 347 600 347.8C650 348.7 700 309.3 750 282.2C800 255 850 240 875 232.5L900 225L900 601L875 601C850 601 800 601 750 601C700 601 650 601 600 601C550 601 500 601 450 601C400 601 350 601 300 601C250 601 200 601 150 601C100 601 50 601 25 601L0 601Z" fill="#FF0066" stroke-linecap="round" stroke-linejoin="miter"></path></svg>