<svg id="visual" viewBox="0 0 900 600" width="900" height="600" xmlns="http://www.w3.org/2000/svg" xmlns:xlink="http://www.w3.org/1999/xlink" version="1.1"><path d="M0 420L21.5 405.7C43 391.3 86 362.7 128.8 345C171.7 327.3 214.3 320.7 257.2 322.5C300 324.3 343 334.7 385.8 351.7C428.7 368.7 471.3 392.3 514.2 397.2C557 402 600 388 642.8 377.5C685.7 367 728.3 360 771.2 354.7C814 349.3 857 345.7 878.5 343.8L900 342L900 601L878.5 601C857 601 814 601 771.2 601C728.3 601 685.7 601 642.8 601C600 601 557 601 514.2 601C471.3 601 428.7 601 385.8 601C343 601 300 601 257.2 601C214.3 601 171.7 601 128.8 601C86 601 43 601 21.5 601L0 601Z" fill="#f32f0c"></path><path d="M0 377L21.5 379C43 381 86 385 128.8 385.5C171.7 386 214.3 383 257.2 385.7C300 388.3 343 396.7 385.8 412.8C428.7 429 471.3 453 514.2 458.2C557 463.3 600 449.7 642.8 435.3C685.7 421 728.3 406 771.2 405.5C814 405 857 419 878.5 426L900 433L900 601L878.5 601C857 601 814 601 771.2 601C728.3 601 685.7 601 642.8 601C600 601 557 601 514.2 601C471.3 601 428.7 601 385.8 601C343 601 300 601 257.2 601C214.3 601 171.7 601 128.8 601C86 601 43 601 21.5 601L0 601Z" fill="#b81204"></path><path d="M0 440L21.5 447.3C43 454.7 86 469.3 128.8 479C171.7 488.7 214.3 493.3 257.2 491.8C300 490.3 343 482.7 385.8 483C428.7 483.3 471.3 491.7 514.2 494.2C557 496.7 600 493.3 642.8 486.5C685.7 479.7 728.3 469.3 771.2 467.7C814 466 857 473 878.5 476.5L900 480L900 601L878.5 601C857 601 814 601 771.2 601C728.3 601 685.7 601 642.8 601C600 601 557 601 514.2 601C471.3 601 428.7 601 385.8 601C343 601 300 601 257.2 601C214.3 601 171.7 601 128.8 601C86 601 43 601 21.5 601L0 601Z" fill="#7c0000"></path><path d="M0 528L21.5 524.5C43 521 86 514 128.8 511.5C171.7 509 214.3 511 257.2 518.8C300 526.7 343 540.3 385.8 546.5C428.7 552.7 471.3 551.3 514.2 542.3C557 533.3 600 516.7 642.8 513C685.7 509.3 728.3 518.7 771.2 523.2C814 527.7 857 527.3 878.5 527.2L900 527L900 601L878.5 601C857 601 814 601 771.2 601C728.3 601 685.7 601 642.8 601C600 601 557 601 514.2 601C471.3 601 428.7 601 385.8 601C343 601 300 601 257.2 601C214.3 601 171.7 601 128.8 601C86 601 43 601 21.5 601L0 601Z" fill="#000000"></path></svg>